<svg xmlns="http://www.w3.org/2000/svg" width="89.867" height="86.239" viewBox="0 0 89.867 86.239">
  <g id="Group_7" data-name="Group 7" transform="translate(-814.902 -1308.853)">
    <g id="Group_4" data-name="Group 4" transform="translate(814.902 1308.853)">
      <path id="Path_6" data-name="Path 6" d="M650.486-294.157l-6.467-6.351c-1.112,2.828-2.237,5.693-3.364,8.557-.717,1.822-1.493,3.623-2.131,5.471a2.432,2.432,0,0,1-2.556,1.853c-3.115-.012-6.232.044-9.345-.023-1.953-.042-2.666-.988-2.33-2.907.414-2.358,1.49-4.234,4.032-4.747,2.9-.584,4.182-2.255,4.542-5.22.5-4.083,1.5-8.1,2.205-12.161.236-1.362.218-2.769.335-4.43-3.182.949-6,1.829-8.844,2.624-2.078.582-4.172,1.121-6.284,1.556a5.245,5.245,0,0,1-6.528-3.926,20.84,20.84,0,0,1-.2-9.8c3.731,1.291,3.707,1.291,3.723,4.824.008,1.663-.348,3.7,1.535,4.485,1.956.816,3.316-.8,4.447-2.1,1.88-2.161,3.576-4.482,5.7-7.178-2.254-.226-3.834-.387-5.415-.543a14.989,14.989,0,0,1-9.511-4.058A75.107,75.107,0,0,1,607-336.582c-1.686-2.3-1.249-3.338,1.393-4.465,2.111-.9,4.26-1.719,6.426-2.478a6.509,6.509,0,0,0,4.487-4.6c1.343-5.328,5.433-6.931,10.089-7.123,3.918-.162,7.872.555,12.09.905.79-2.89,1.592-6.229,1.014-9.692-.4-2.4-2.038-3.108-3.926-1.585a29.7,29.7,0,0,0-4.59,4.814,3.5,3.5,0,0,1-3.336,1.718,20.166,20.166,0,0,0-3.462.312c2.963-4.372,5.766-8.5,10.319-11,3.2-1.754,6.307-1.186,8.032,1.99,3.382,6.229,6.51,12.6,9.584,18.988,1.159,2.407,1.862,5.032,2.81,7.544a2.853,2.853,0,0,0,.772,1.145c7.218,6.075,11.882,14.136,17.086,21.792,4.8,7.058,7.828,14.935,10.974,22.773.2.488.428.962.679,1.522,1.249-.443,2.377-.868,3.522-1.243a3.578,3.578,0,0,1,4.279,1.435,4.008,4.008,0,0,1-.456,4.875c-2.772,2.691-5.7,4.541-9.985,4.435-11.844-.292-23.7-.1-35.552-.1-3.546,0-3.739-.632-3.158-4.119C646.564-291.567,648.792-292.57,650.486-294.157Zm-20.612-23.411.345.466c3.978-1.411,7.908-2.988,11.951-4.18,3.249-.958,5.279-3.122,6.979-5.79a20.2,20.2,0,0,0,1.859-3.36c1.73-4.394,3.707-8.78,1.369-13.608-.852-1.759-1.558-3.588-2.365-5.369-1.009-2.229-2.054-4.443-3.083-6.663l-.51.029A98.674,98.674,0,0,1,629.874-317.568Z" transform="translate(-606.003 370.753)" fill="#505050"/>
    </g>
  </g>
</svg>
