<svg xmlns="http://www.w3.org/2000/svg" width="95.421" height="91.568" viewBox="0 0 95.421 91.568">
  <g id="Group_7" data-name="Group 7" transform="translate(-814.902 -1308.853)">
    <g id="Group_4" data-name="Group 4" transform="translate(814.902 1308.853)">
      <path id="Path_6" data-name="Path 6" d="M653.235-289.423l-6.866-6.743c-1.18,3-2.376,6.044-3.572,9.086-.761,1.934-1.585,3.847-2.263,5.809a2.583,2.583,0,0,1-2.714,1.968c-3.308-.012-6.617.047-9.923-.024-2.074-.045-2.831-1.049-2.474-3.086.439-2.5,1.582-4.5,4.281-5.04,3.077-.62,4.44-2.394,4.823-5.542.526-4.335,1.594-8.6,2.342-12.913.251-1.446.231-2.94.356-4.7-3.378,1.007-6.371,1.942-9.39,2.786-2.206.618-4.43,1.19-6.673,1.652a5.569,5.569,0,0,1-6.932-4.168,22.128,22.128,0,0,1-.213-10.4c3.961,1.37,3.936,1.371,3.953,5.123.008,1.766-.37,3.928,1.63,4.762,2.077.866,3.521-.854,4.722-2.235,2-2.295,3.8-4.759,6.051-7.622-2.393-.24-4.071-.411-5.75-.577-3.82-.379-7.4-1.576-10.1-4.308a79.744,79.744,0,0,1-7.46-8.868c-1.791-2.437-1.327-3.544,1.479-4.74,2.241-.955,4.523-1.826,6.823-2.631a6.911,6.911,0,0,0,4.764-4.887c1.426-5.657,5.769-7.359,10.713-7.563,4.16-.172,8.359.589,12.837.961.839-3.069,1.69-6.614,1.077-10.291-.426-2.552-2.164-3.3-4.168-1.682a31.536,31.536,0,0,0-4.873,5.111c-.975,1.242-1.892,1.97-3.542,1.825a21.41,21.41,0,0,0-3.676.331c3.147-4.643,6.122-9.028,10.957-11.677,3.4-1.862,6.7-1.26,8.528,2.113,3.591,6.614,6.912,13.378,10.176,20.162,1.23,2.556,1.977,5.343,2.983,8.01a3.029,3.029,0,0,0,.82,1.215c7.664,6.45,12.616,15.01,18.142,23.139,5.094,7.494,8.312,15.858,11.652,24.18.208.518.455,1.021.721,1.616,1.326-.471,2.524-.922,3.74-1.32a3.8,3.8,0,0,1,4.544,1.524,4.255,4.255,0,0,1-.484,5.177c-2.943,2.857-6.05,4.821-10.6,4.709-12.576-.31-25.165-.1-37.75-.11-3.765,0-3.97-.671-3.354-4.373C649.071-286.674,651.436-287.739,653.235-289.423Zm-21.886-24.858.367.495c4.224-1.5,8.4-3.173,12.69-4.439,3.45-1.017,5.6-3.315,7.41-6.148a21.449,21.449,0,0,0,1.973-3.567c1.837-4.665,3.936-9.322,1.454-14.449-.9-1.868-1.654-3.809-2.511-5.7-1.072-2.367-2.181-4.717-3.273-7.075l-.542.031A104.772,104.772,0,0,1,631.349-314.281Z" transform="translate(-606.003 370.753)" fill="#505050"/>
    </g>
  </g>
</svg>
