<svg xmlns="http://www.w3.org/2000/svg" width="84.475" height="75.875" viewBox="0 0 84.475 75.875">
  <g id="Group_8" data-name="Group 8" transform="translate(-289.213 -1318.134)">
    <g id="Group_5" data-name="Group 5" transform="translate(289.213 1318.134)">
      <path id="Path_7" data-name="Path 7" d="M350.836-263.159q-15.992,0-31.983,0c-3.654,0-4.093-.437-4.093-3.993,0-11.727.033-23.455-.038-35.182a3.112,3.112,0,0,1,2.022-3.262q16.155-7.959,32.22-16.1a3.716,3.716,0,0,1,3.761,0q16.262,8.219,32.6,16.3a2.55,2.55,0,0,1,1.614,2.644c-.038,12.153-.014,24.307-.031,36.461,0,2.511-.676,3.121-3.445,3.125Q367.148-263.141,350.836-263.159Zm.165-9.747c2.6-.635,5.319-.953,7.746-1.976,3.605-1.52,4.772-4.973,3.108-8.516a11.469,11.469,0,0,0-10.98-7.063,11.455,11.455,0,0,0-11.022,6.993c-1.754,3.689-.444,7.264,3.377,8.74C345.629-273.8,348.277-273.52,351-272.906Zm-12.731-18.239a6.817,6.817,0,0,0-2.653-5.73,3.3,3.3,0,0,0-5.431,1.674,6.632,6.632,0,0,0,1.267,6.188c1.109,1.533,2.624,2.522,4.571,1.823C337.892-287.861,338.351-289.506,338.271-291.145Zm25.106.381a3.425,3.425,0,0,0,2.277,3.577c1.952.706,3.46-.314,4.565-1.837a6.6,6.6,0,0,0,1.263-6.188,3.3,3.3,0,0,0-5.44-1.657C364.263-295.485,363.4-293.6,363.377-290.764Zm-23.418-10.214c.545,1.421.8,3.078,1.722,4.192a4.606,4.606,0,0,0,3.49,1.685,4.374,4.374,0,0,0,2.757-2.7,8.816,8.816,0,0,0-.159-4.705c-.68-2.4-2.683-3.611-4.57-3.23C341.456-305.386,340.305-303.557,339.959-300.978Zm21.839.072c-.435-2.65-1.576-4.47-3.314-4.829a3.961,3.961,0,0,0-4.557,3.217,10.318,10.318,0,0,0,0,5.312,3.138,3.138,0,0,0,5.684.947C360.635-297.576,361.087-299.342,361.8-300.907Z" transform="translate(-308.484 339.032)" fill="#505050"/>
      <path id="Path_8" data-name="Path 8" d="M300.386-335.9c-1.136-4.242,1.251-6.01,4.73-7.682,11.71-5.628,23.293-11.521,34.878-17.4a4.905,4.905,0,0,1,4.966.033q18.432,9.338,36.965,18.473c1.926.949,2.812,2.139,2.626,4.3-.152,1.763-.009,3.55-.038,5.325-.046,2.769-1.341,3.6-3.835,2.374-6.94-3.425-13.854-6.9-20.775-10.366-5.208-2.6-10.435-5.169-15.6-7.854a3.657,3.657,0,0,0-3.749.032q-17.584,8.888-35.227,17.662c-3.944,1.972-4.935,1.367-4.939-2.974Q300.385-334.946,300.386-335.9Z" transform="translate(-300.1 361.648)" fill="#505050"/>
    </g>
  </g>
</svg>
