<svg xmlns="http://www.w3.org/2000/svg" width="83.811" height="82.239" viewBox="0 0 83.811 82.239">
  <g id="Group_6" data-name="Group 6" transform="translate(-537.706 -1314.182)">
    <g id="Group_3" data-name="Group 3" transform="translate(537.706 1314.182)">
      <path id="Path_3" data-name="Path 3" d="M939.706-252.064c1.034-.063,2.054-.184,3.073-.176a7.879,7.879,0,0,0,6.925-3.788,22.634,22.634,0,0,0,3.339-9.026c.093-.536.173-1.073.276-1.714-.561-.2-1.115-.408-1.679-.586-2.332-.734-4.675-1.437-7-2.205a4.506,4.506,0,0,1-1.222-.824,2.408,2.408,0,0,1-.379-.507c-1.1-1.5-1.992-3.267-4.362-3.112l.059-.314c1.9-.639,3.823-1.236,5.706-1.932a3.836,3.836,0,0,1,3.813.508,16.176,16.176,0,0,0,18.177-.562,1.639,1.639,0,0,1,1.573-.3c1.586.488,3.175.969,4.771,1.428a.841.841,0,0,1,.726.949c-.034,2.029,0,4.059-.041,6.087a.956.956,0,0,1-.5.74,7.5,7.5,0,0,0-4.861,3.8,19.051,19.051,0,0,0-2.317,7.947,56.736,56.736,0,0,0-.275,6.617,5.208,5.208,0,0,0,4,5.206c.861.234,1.729.45,2.6.615a1.448,1.448,0,0,0,1.6-.795,1.465,1.465,0,0,0-.188-1.773,1.49,1.49,0,0,0-1.737-.433,2.976,2.976,0,0,1-4.19-2.552,35.052,35.052,0,0,1,.045-5.619,21.286,21.286,0,0,1,1.721-7.563c.79-1.691,1.828-3.145,3.8-3.614a4.8,4.8,0,0,1,5.314,2.024,14.5,14.5,0,0,1,2.3,6.528c.318,2.485.454,5,.524,7.507a3.28,3.28,0,0,1-2.794,3.575,3.537,3.537,0,0,1-1.378-.244,1.554,1.554,0,0,0-1.939.505,1.414,1.414,0,0,0,.022,1.845,1.5,1.5,0,0,0,1.945.462,3.6,3.6,0,0,1,1.192-.321c2.355-.153,4.694-2.067,4.83-4.431.3-5.2-.027-10.357-2.376-15.151a7.142,7.142,0,0,0-5-4.128.734.734,0,0,1-.475-.5c-.033-2.046-.021-4.094-.021-6.336,1.342.608,2.53,1.1,3.681,1.676,5.545,2.758,10.51,6.239,14.052,11.457a21.137,21.137,0,0,1,3.708,10.013,5.351,5.351,0,0,1-2.568,5.1,44.929,44.929,0,0,1-12.792,5.675,73.668,73.668,0,0,1-18.678,2.9c-4.987.119-9.986.015-14.971-.206a84.282,84.282,0,0,1-8.359-1.081.9.9,0,0,1-.58-.648c.249-4.109.544-8.215.832-12.321A3.564,3.564,0,0,1,939.706-252.064Z" transform="translate(-912.953 319.589)" fill="#505050"/>
      <path id="Path_4" data-name="Path 4" d="M952.373-379.929a20.292,20.292,0,0,1,19.484,13.37,21.692,21.692,0,0,1-6.193,24.155c-9,7.52-22.074,5.545-28.8-4.35-7.3-10.751-3.332-25.927,8.218-31.372A17.752,17.752,0,0,1,952.373-379.929Z" transform="translate(-909.739 379.93)" fill="#505050"/>
      <path id="Path_5" data-name="Path 5" d="M899.159-240.956h-6.765c-2.815,0-5.631.01-8.446,0a7,7,0,0,1-6.607-9.855c1.232-3.085,2.4-6.2,3.673-9.262,1.4-3.376,1.938-6.97,2.762-10.491.915-3.909,1.771-7.833,2.654-11.75.027-.117.077-.229.168-.491a24.268,24.268,0,0,1,2.071,2.913,5.992,5.992,0,0,0,5.582,3.508c.7.021,1.073-.045,1.334-.765.65-1.786,1.4-3.537,2.107-5.3.019-.048.091-.074.2-.155.694,2.1,1.455,4.163,2.034,6.272a1.851,1.851,0,0,0,1.778,1.555,2.081,2.081,0,0,1,1.808,1.157,7.631,7.631,0,0,0,5.675,3.974c1.411.292,2.772.826,4.28,1.289-.148.636-.267,1.245-.433,1.841a16.035,16.035,0,0,1-2.48,5.5,4.739,4.739,0,0,1-4.029,2.059c-1.991-.022-3.982,0-6.077,0Zm-2.45-27.417a1.115,1.115,0,0,0,1.218-1.08,1.314,1.314,0,0,0-1.266-1.291,1.029,1.029,0,0,0-1.125,1.049A1.181,1.181,0,0,0,896.709-268.373Z" transform="translate(-876.766 323.166)" fill="#505050"/>
    </g>
  </g>
</svg>
